<?xml version="1.0" standalone="no"?>
<!DOCTYPE svg PUBLIC "-//W3C//DTD SVG 20010904//EN"
 "http://www.w3.org/TR/2001/REC-SVG-20010904/DTD/svg10.dtd">
<svg version="1.0" xmlns="http://www.w3.org/2000/svg"
 width="310.000000pt" height="89.000000pt" viewBox="0 0 310.000000 89.000000"
 preserveAspectRatio="xMidYMid meet">
<metadata>
Created by potrace 1.16, written by Peter Selinger 2001-2019
</metadata>
<g transform="translate(0.000000,89.000000) scale(0.100000,-0.100000)"
fill="#000000" stroke="none">
<path d="M0 445 l0 -445 1550 0 1550 0 0 445 0 445 -1372 0 -1373 -1 38 -20
c28 -15 60 -20 129 -22 l92 -2 9 -35 c5 -19 12 -39 17 -44 7 -7 450 -18 570
-14 45 1 104 1 155 -1 22 -1 135 1 250 4 237 6 292 -1 346 -45 l37 -29 23 25
c35 37 72 54 121 54 43 0 108 -30 108 -49 0 -6 23 2 51 16 42 22 62 26 117 24
37 -1 81 -1 97 0 44 3 184 3 225 0 19 -1 69 1 111 5 87 7 169 -11 207 -46 21
-20 22 -26 22 -245 0 -312 35 -290 -448 -290 -352 0 -354 0 -372 22 -17 21
-19 21 -66 7 -70 -21 -219 -30 -238 -15 -12 10 -20 10 -38 -1 -27 -15 -466
-22 -504 -7 -15 5 -45 4 -77 -2 -42 -9 -66 -8 -113 4 -53 14 -65 14 -117 -1
-49 -13 -67 -14 -120 -3 -42 8 -71 9 -88 3 -33 -13 -245 -13 -287 0 -32 10
-39 21 -44 83 -3 30 -3 30 -31 -18 -35 -60 -166 -197 -188 -197 -24 0 -140
119 -188 192 -23 35 -56 99 -73 143 -29 72 -33 92 -36 205 -4 122 8 220 30
248 7 8 39 12 95 12 75 0 153 18 153 34 0 4 -74 6 -165 6 l-165 0 0 -445z"/>
<path d="M312 837 c-23 -14 -59 -21 -121 -25 l-88 -5 -11 -56 c-43 -208 23
-429 177 -593 l74 -79 43 42 c24 24 39 46 34 49 -6 4 1 21 16 41 35 47 80 129
88 159 6 20 5 22 -4 8 -11 -18 -74 -43 -132 -53 l-38 -6 0 204 c0 144 3 206
12 215 14 14 84 16 101 2 53 -42 80 -72 101 -115 l24 -49 6 34 c13 85 13 122
3 162 l-12 43 -85 0 c-68 0 -93 5 -120 21 -35 20 -35 20 -68 1z m-103 -447
c17 -41 24 -66 16 -56 -15 20 -47 99 -59 146 -5 21 -5 22 3 5 6 -11 24 -54 40
-95z"/>
<path d="M2090 722 c-19 -9 -35 -21 -36 -27 0 -5 -10 -30 -22 -55 -12 -26 -22
-65 -22 -92 0 -47 0 -47 -29 -42 -26 5 -29 3 -34 -28 -4 -18 -4 -80 -2 -137 5
-135 13 -145 105 -136 75 7 206 43 219 59 4 6 11 66 14 133 6 127 0 151 -37
137 -14 -5 -16 2 -16 48 0 44 -4 59 -23 76 -33 31 -40 27 -17 -10 23 -38 26
-81 7 -96 -11 -9 -134 -29 -147 -23 -3 1 -8 -8 -12 -21 -4 -13 -6 8 -5 47 2
55 7 78 25 103 13 17 21 36 17 42 -3 5 16 16 42 24 26 8 39 15 28 15 -11 1
-36 -7 -55 -17z"/>
<path d="M620 465 l0 -235 55 0 55 0 0 85 c0 84 0 85 25 85 25 0 25 -1 25 -85
l0 -85 55 0 55 0 0 235 0 235 -55 0 -55 0 0 -95 c0 -95 0 -95 -25 -95 -25 0
-25 0 -25 95 l0 95 -55 0 -55 0 0 -235z"/>
<path d="M930 480 l0 -221 35 -15 c44 -18 106 -18 150 0 l35 15 0 220 0 221
-50 0 -50 0 -2 -192 -2 -193 -6 190 -5 190 -52 3 -53 3 0 -221z"/>
<path d="M1210 682 l-35 -17 0 -130 0 -130 58 -3 57 -3 -2 -42 -1 -42 -4 38
-4 37 -55 0 -54 0 0 -60 c0 -53 3 -61 25 -76 39 -25 108 -29 160 -10 l45 18 0
204 -1 204 -36 15 c-47 20 -110 19 -153 -3z m82 -134 c2 -21 0 -38 -4 -38 -4
0 -7 24 -7 53 1 54 5 49 11 -15z"/>
<path d="M1430 465 l0 -235 55 0 55 0 0 85 c0 78 2 85 20 85 18 0 20 -7 20
-85 l0 -85 55 0 55 0 0 235 0 235 -55 0 -55 0 0 -95 c0 -88 -1 -95 -20 -95
-19 0 -20 7 -20 95 l0 95 -55 0 -55 0 0 -235z"/>
<path d="M1710 465 l0 -235 80 0 c53 0 91 5 110 15 l29 15 0 206 0 205 -34 15
c-20 8 -67 14 -110 14 l-75 0 0 -235z m119 88 c-1 -62 -6 -56 -11 15 -2 23 0
42 4 42 5 0 7 -26 7 -57z m1 -193 c0 -22 -3 -40 -7 -40 -5 0 -8 18 -8 40 0 22
3 40 8 40 4 0 7 -18 7 -40z"/>
<path d="M2338 683 l-38 -15 0 -219 0 -219 55 0 54 0 4 88 3 87 2 -87 2 -88
55 0 55 0 0 219 0 219 -40 16 c-50 20 -104 20 -152 -1z m79 -155 c-2 -18 -4
-6 -4 27 0 33 2 48 4 33 2 -15 2 -42 0 -60z"/>
<path d="M2550 465 l0 -235 55 0 54 0 4 88 3 87 2 -87 2 -88 55 0 55 0 0 98
c0 63 -4 102 -12 110 -9 9 -9 15 0 24 8 8 12 47 12 108 l0 96 -35 17 c-24 12
-61 17 -115 17 l-80 0 0 -235z m117 68 c-2 -16 -4 -3 -4 27 0 30 2 43 4 28 2
-16 2 -40 0 -55z"/>
<path d="M2800 465 l0 -235 80 0 c54 0 91 5 115 17 l35 17 0 202 0 202 -40 16
c-25 10 -70 16 -115 16 l-75 0 0 -235z m117 -72 c-1 -43 -3 -10 -3 72 0 83 2
118 3 78 2 -40 2 -107 0 -150z"/>
<path d="M2122 649 c-23 -9 -57 -73 -47 -89 3 -4 13 -7 23 -5 73 15 72 14 72
49 0 41 -17 57 -48 45z"/>
</g>
</svg>
